<?xml version="1.0" encoding="UTF-8"?>
<!DOCTYPE svg PUBLIC "-//W3C//DTD SVG 1.1//EN" "http://www.w3.org/Graphics/SVG/1.1/DTD/svg11.dtd">
<svg xmlns="http://www.w3.org/2000/svg" version="1.1" width="300px" height="300px" style="shape-rendering:geometricPrecision; text-rendering:geometricPrecision; image-rendering:optimizeQuality; fill-rule:evenodd; clip-rule:evenodd" xmlns:xlink="http://www.w3.org/1999/xlink">
<g><path style="opacity:0.999" fill="#016afe" d="M 131.5,-0.5 C 143.5,-0.5 155.5,-0.5 167.5,-0.5C 230.815,9.96863 272.981,45.6353 294,106.5C 296.278,114.877 298.111,123.21 299.5,131.5C 299.5,143.5 299.5,155.5 299.5,167.5C 289.031,230.815 253.365,272.981 192.5,294C 184.123,296.278 175.79,298.111 167.5,299.5C 155.5,299.5 143.5,299.5 131.5,299.5C 68.1853,289.031 26.0187,253.365 5,192.5C 2.72213,184.123 0.888795,175.79 -0.5,167.5C -0.5,155.5 -0.5,143.5 -0.5,131.5C 9.96863,68.1853 45.6353,26.0187 106.5,5C 114.877,2.72213 123.21,0.888795 131.5,-0.5 Z"/></g>
<g><path style="opacity:1" fill="#fcfdff" d="M 148.5,51.5 C 175.058,71.2123 201.225,91.5456 227,112.5C 227.816,121.079 227.649,129.579 226.5,138C 198.916,143.976 171.916,151.643 145.5,161C 159.536,143.964 175.203,128.63 192.5,115C 187.973,110.108 183.807,104.941 180,99.5C 179.044,98.1059 177.711,97.4393 176,97.5C 140.202,108.267 105.702,122.267 72.5,139.5C 71.3347,130.518 71.168,121.518 72,112.5C 97.6875,92.3028 123.187,71.9694 148.5,51.5 Z"/></g>
<g><path style="opacity:1" fill="#fdfeff" d="M 222.5,166.5 C 223.833,166.5 225.167,166.5 226.5,166.5C 226.5,184.833 226.5,203.167 226.5,221.5C 175.167,221.5 123.833,221.5 72.5,221.5C 72.5,202.167 72.5,182.833 72.5,163.5C 96.2036,150.434 120.87,139.6 146.5,131C 127.884,146.781 111.55,164.614 97.5,184.5C 101.934,191.419 107.267,197.419 113.5,202.5C 148.665,186.889 184.998,174.889 222.5,166.5 Z"/></g>
<g><path style="opacity:1" fill="#94c0ff" d="M 222.5,166.5 C 223.919,165.549 225.585,165.216 227.5,165.5C 227.5,184.167 227.5,202.833 227.5,221.5C 227.167,221.5 226.833,221.5 226.5,221.5C 226.5,203.167 226.5,184.833 226.5,166.5C 225.167,166.5 223.833,166.5 222.5,166.5 Z"/></g>
<g><path style="opacity:1" fill="#77aeff" d="M 72.5,163.5 C 72.5,182.833 72.5,202.167 72.5,221.5C 123.833,221.5 175.167,221.5 226.5,221.5C 226.833,221.5 227.167,221.5 227.5,221.5C 175.669,222.499 123.669,222.832 71.5,222.5C 71.1696,202.66 71.5029,182.993 72.5,163.5 Z"/></g>
</svg>
