<svg xmlns="http://www.w3.org/2000/svg" width="400" height="320" viewBox="0 0 400 320" version="1.1"><path d="M 174.500 30.615 C 133.399 37.987, 97.831 64.463, 79.259 101.508 C 65.115 129.722, 61.508 162.177, 69.138 192.597 L 71.246 201 196.964 201 L 322.683 201 323.805 197.250 C 328.706 180.861, 330.156 159.596, 327.567 142.073 C 321.114 98.389, 294.749 61.972, 255.171 42.074 C 246.183 37.554, 230.090 32.431, 219.074 30.582 C 207.433 28.628, 185.484 28.644, 174.500 30.615 M 186 54.085 C 160.441 56.590, 133.557 70.671, 116.834 90.311 C 93.136 118.144, 84.975 156.493, 95.596 190.115 L 98.087 198 108.340 198 L 118.593 198 126.046 193.100 C 134.600 187.476, 145.812 176.683, 153.050 167.103 C 159.673 158.337, 170.833 135.940, 174.776 123.500 C 179.279 109.291, 182.728 94.366, 184.160 82.893 C 185.349 73.365, 186.135 71.304, 187.362 74.500 C 187.815 75.681, 189.867 76, 197 76 C 204.133 76, 206.185 75.681, 206.638 74.500 C 207.792 71.493, 208.757 73.138, 209.423 79.250 C 211.777 100.845, 220.291 129.909, 229.586 148.082 C 239.256 166.986, 253.197 183.178, 268.585 193.378 L 275.669 198.074 285.986 197.787 L 296.303 197.500 297.680 193.515 C 305.875 169.809, 304.251 138.562, 293.629 115.573 C 274.540 74.258, 231.435 49.632, 186 54.085 M 187.480 84.253 C 187.145 86.042, 187.012 89.754, 187.185 92.503 L 187.500 97.500 194.988 97.799 C 205.978 98.237, 207 97.815, 207 92.847 C 207 90.584, 206.479 86.992, 205.842 84.866 L 204.683 81 196.387 81 L 188.091 81 187.480 84.253 M 182.657 98.756 C 181.728 104.115, 180.975 109.422, 180.984 110.550 C 180.993 111.677, 180.576 113.027, 180.057 113.550 C 179.054 114.561, 177.169 121.242, 176.274 126.955 C 175.977 128.855, 175.118 131.024, 174.367 131.776 C 173.268 132.875, 173 139.461, 173 165.413 L 173 197.683 177.828 197.854 L 182.656 198.025 183.991 144.008 C 184.725 114.299, 185.105 89.771, 184.836 89.502 C 184.566 89.233, 183.586 93.397, 182.657 98.756 M 209.587 107.289 C 209.684 117.305, 210.101 141.826, 210.515 161.780 L 211.266 198.060 217.633 197.885 L 224 197.710 224 169.469 C 224 146.363, 223.728 140.708, 222.506 138.364 C 221.685 136.789, 221.010 134.739, 221.006 133.809 C 221.003 132.879, 220.589 131.864, 220.087 131.554 C 219.585 131.243, 218.871 129.194, 218.500 127 C 218.129 124.806, 217.415 122.757, 216.913 122.446 C 216.411 122.136, 215.997 120.896, 215.994 119.691 C 215.990 118.486, 215.315 116.211, 214.494 114.636 C 213.672 113.060, 213 110.620, 213 109.214 C 213 106.920, 210.086 89.807, 209.607 89.289 C 209.500 89.174, 209.491 97.274, 209.587 107.289 M 187.498 111.250 C 187.142 114.138, 186.997 118.750, 187.176 121.500 L 187.500 126.500 197 126.500 L 206.500 126.500 206.461 120 C 206.440 116.425, 206.082 111.813, 205.666 109.750 L 204.909 106 196.527 106 L 188.144 106 187.498 111.250 M 188.285 138.750 C 187.870 140.262, 187.524 145.100, 187.516 149.500 L 187.500 157.500 197.386 157.788 L 207.271 158.076 206.796 148.201 C 206.534 142.770, 205.996 137.803, 205.601 137.163 C 205.152 136.437, 201.905 136, 196.960 136 C 189.167 136, 189.026 136.045, 188.285 138.750 M 170.607 140.582 C 169.536 143.372, 169.910 198, 171 198 C 171.644 198, 172 187.500, 172 168.500 C 172 152.275, 171.823 139, 171.607 139 C 171.391 139, 170.941 139.712, 170.607 140.582 M 167.035 148.934 C 166.406 150.111, 166 160.102, 166 174.434 C 166 194.715, 166.209 198, 167.500 198 C 168.794 198, 169 194.500, 169 172.500 C 169 158.475, 168.791 147, 168.535 147 C 168.280 147, 167.605 147.870, 167.035 148.934 M 225 172.500 C 225 194.500, 225.206 198, 226.500 198 C 227.791 198, 227.998 194.756, 227.986 174.750 C 227.979 161.963, 227.701 150.488, 227.370 149.250 C 225.663 142.881, 225 149.386, 225 172.500 M 163.035 156.934 C 162.423 158.079, 162 166.859, 162 178.434 C 162 195.159, 162.218 198, 163.500 198 C 164.787 198, 165 194.944, 165 176.500 C 165 164.675, 164.791 155, 164.535 155 C 164.280 155, 163.605 155.870, 163.035 156.934 M 229.032 176.250 C 229.004 194.931, 229.212 198, 230.500 198 C 232.705 198, 232.735 159.354, 230.532 156.441 C 229.226 154.715, 229.060 156.907, 229.032 176.250 M 158.615 164.465 C 157.303 166.467, 157 169.848, 157 182.465 C 157 197.333, 157.086 198, 159 198 C 160.926 198, 161 197.333, 161 180 C 161 170.100, 160.827 162, 160.615 162 C 160.403 162, 159.503 163.109, 158.615 164.465 M 233.033 179.750 C 233.001 197.344, 233.072 198, 235 198 C 236.916 198, 237 197.333, 237 182.111 C 237 167.778, 236.807 165.990, 235.033 163.861 L 233.067 161.500 233.033 179.750 M 188.083 173.049 C 187.487 175.826, 187 182.576, 187 188.049 L 187 198 197.140 198 L 207.280 198 206.781 184.133 C 206.507 176.506, 205.967 169.756, 205.582 169.133 C 205.157 168.445, 201.799 168, 197.024 168 L 189.166 168 188.083 173.049 M 153.655 171.829 C 152.306 173.320, 152 175.907, 152 185.829 C 152 197.333, 152.110 198, 154 198 C 155.905 198, 156 197.333, 156 184 C 156 176.300, 155.845 170, 155.655 170 C 155.465 170, 154.565 170.823, 153.655 171.829 M 238 184 C 238 197.333, 238.095 198, 240 198 C 241.893 198, 241.998 197.344, 241.968 185.750 C 241.938 174.255, 241.039 170, 238.640 170 C 238.288 170, 238 176.300, 238 184 M 147.250 179.963 C 145.365 182.354, 145 184.047, 145 190.408 L 145 198 148 198 L 151 198 151 187.500 C 151 181.725, 150.662 177.025, 150.250 177.055 C 149.838 177.086, 148.488 178.394, 147.250 179.963 M 243 187.500 L 243 198 246 198 L 249 198 249 190.460 C 249 184.271, 248.608 182.388, 246.812 179.960 C 245.609 178.332, 244.259 177, 243.812 177 C 243.365 177, 243 181.725, 243 187.500 M 140.174 187.314 C 138.657 188.930, 138 190.893, 138 193.814 C 138 197.798, 138.145 198, 141 198 L 144 198 144 191.500 C 144 187.925, 143.628 185, 143.174 185 C 142.720 185, 141.370 186.042, 140.174 187.314 M 250 191.500 L 250 198 253 198 C 255.871 198, 256 197.814, 256 193.674 C 256 190.446, 255.413 188.797, 253.686 187.174 C 252.413 185.978, 251.063 185, 250.686 185 C 250.308 185, 250 187.925, 250 191.500 M 132.750 193.115 C 128.873 196.008, 129.179 198, 133.500 198 C 136.833 198, 137 197.833, 137 194.500 C 137 190.465, 136.514 190.307, 132.750 193.115 M 257 194.500 C 257 197.833, 257.167 198, 260.500 198 C 264.782 198, 265.128 196.032, 261.365 193.073 C 257.731 190.214, 257 190.453, 257 194.500 M 32 207.892 C 32 209.075, 32.936 210.018, 34.500 210.411 C 36.906 211.015, 37 211.339, 37 219.040 C 37 226.606, 36.864 227.105, 34.500 228.182 C 33.125 228.808, 32 230.149, 32 231.161 C 32 232.880, 33.201 233, 50.365 233 C 67.430 233, 68.917 232.853, 71.365 230.927 C 74.633 228.357, 74.880 223.898, 71.909 221.130 L 69.818 219.182 71.909 217.091 C 74.549 214.451, 74.588 210.588, 72 208 C 70.140 206.140, 68.667 206, 51 206 C 33.030 206, 32 206.103, 32 207.892 M 85 208 C 85 209.313, 85.667 210, 86.941 210 C 88.009 210, 89.170 210.466, 89.522 211.036 C 90.432 212.508, 81.066 227.170, 78.845 227.751 C 77.703 228.050, 77 229.141, 77 230.617 C 77 232.929, 77.238 233, 85 233 C 92.333 233, 93 232.833, 93 231 C 93 229.687, 92.333 229, 91.059 229 C 88.703 229, 87.785 227.725, 88.604 225.590 C 89.492 223.275, 107.144 223.263, 109.063 225.576 C 110.147 226.883, 110.126 227.308, 108.936 228.061 C 108.146 228.561, 106.938 228.976, 106.250 228.985 C 105.563 228.993, 105 229.900, 105 231 C 105 232.843, 105.667 233, 113.500 233 C 121.662 233, 122 232.910, 122 230.737 C 122 229.374, 121.128 228.082, 119.805 227.487 C 117.165 226.300, 108.521 212.584, 109.458 211.069 C 109.821 210.481, 111.216 210, 112.559 210 C 114.333 210, 115 209.454, 115 208 C 115 206.089, 114.333 206, 100 206 C 85.667 206, 85 206.089, 85 208 M 120 208 C 120 209.100, 120.423 210, 120.939 210 C 121.455 210, 125.280 213.003, 129.439 216.673 C 134.653 221.276, 137 224.048, 137 225.606 C 137 227.919, 133.938 229.698, 132.009 228.506 C 131.431 228.148, 131 228.974, 131 230.441 L 131 233 141 233 L 151 233 151 230.441 C 151 228.974, 150.569 228.148, 149.991 228.506 C 148.097 229.676, 145 227.922, 145 225.679 C 145 223.270, 159.010 210, 161.553 210 C 162.349 210, 163 209.100, 163 208 C 163 206.157, 162.333 206, 154.500 206 C 146.842 206, 146 206.187, 146 207.883 C 146 208.993, 146.920 210.007, 148.239 210.352 C 150.366 210.908, 150.255 211.165, 146.017 215.482 L 141.557 220.027 137.528 215.962 C 133.817 212.215, 133.638 211.793, 135.250 210.588 C 136.213 209.868, 137 208.542, 137 207.640 C 137 206.249, 135.711 206, 128.500 206 C 120.667 206, 120 206.157, 120 208 M 186 208 C 186 209.344, 186.667 210, 188.031 210 C 189.149 210, 190.311 210.646, 190.614 211.436 C 191.357 213.373, 183.063 227.171, 180.799 227.763 C 179.702 228.050, 179 229.163, 179 230.617 C 179 232.916, 179.265 233, 186.500 233 C 193.333 233, 194 232.822, 194 231 C 194 229.900, 193.352 229, 192.559 229 C 190.655 229, 189.846 227.565, 190.617 225.555 C 191.144 224.183, 192.733 223.975, 200.859 224.215 C 209.238 224.463, 210.522 224.735, 210.825 226.321 C 211.051 227.500, 210.438 228.334, 209.087 228.688 C 207.883 229.002, 207 230.048, 207 231.157 C 207 232.923, 207.675 233.057, 215.239 232.790 C 222.281 232.542, 223.528 232.235, 223.826 230.679 C 224.051 229.501, 223.439 228.666, 222.092 228.314 C 219.625 227.669, 210.632 213.402, 211.411 211.370 C 211.701 210.617, 212.851 210, 213.969 210 C 215.333 210, 216 209.344, 216 208 C 216 206.089, 215.333 206, 201 206 C 186.667 206, 186 206.089, 186 208 M 227 207.892 C 227 209.075, 227.936 210.018, 229.500 210.411 C 231.906 211.015, 232 211.339, 232 219.040 C 232 226.606, 231.864 227.105, 229.500 228.182 C 228.125 228.808, 227 230.149, 227 231.161 C 227 232.802, 227.914 233, 235.500 233 C 243.952 233, 244 232.986, 244 230.441 C 244 229.026, 243.562 228.152, 243.021 228.487 C 241.027 229.719, 238 226.992, 238 223.965 L 238 221 247.418 221 C 258.559 221, 260 221.421, 260 224.673 C 260 227.365, 261.670 231.080, 263.400 232.235 C 264.005 232.639, 265.962 232.976, 267.750 232.985 C 270.355 232.997, 271 232.597, 271 230.969 C 271 229.851, 270.325 228.678, 269.500 228.362 C 268.675 228.045, 268 226.995, 268 226.028 C 268 225.061, 267.067 223.084, 265.927 221.635 L 263.855 219 265.927 216.365 C 267.067 214.916, 268 213.177, 268 212.500 C 268 211.823, 267.067 210.084, 265.927 208.635 L 263.855 206 245.427 206 C 228.019 206, 227 206.105, 227 207.892 M 274.429 207.945 C 274.429 209.138, 275.313 210.113, 276.714 210.464 C 278.870 211.006, 279 211.519, 279 219.519 C 279 224.423, 278.578 228.053, 278 228.125 C 277.450 228.194, 276.550 228.306, 276 228.375 C 275.450 228.444, 275 228.838, 275 229.250 C 275 229.662, 275 230.675, 275 231.500 C 275 232.781, 277.778 233, 294 233 L 313 233 313 229 C 313 225.400, 312.750 225, 310.500 225 C 309.125 225, 307.082 225.918, 305.960 227.040 C 304.182 228.818, 302.869 229.042, 295.710 228.790 L 287.500 228.500 287.500 225 L 287.500 221.500 296.750 221.212 C 305.177 220.951, 306 220.750, 306 218.962 C 306 217.150, 305.273 217, 296.500 217 L 287 217 287 213.500 L 287 210 295.992 210 C 303.900 210, 305.133 210.241, 306.232 212 C 306.991 213.215, 308.564 214, 310.241 214 C 312.793 214, 313 213.700, 313 210 L 313 206 293.714 206 C 275.276 206, 274.429 206.085, 274.429 207.945 M 325 207.892 C 325 209.093, 325.945 210.020, 327.591 210.433 C 330.677 211.208, 330.596 211.490, 324.595 220.853 C 322.075 224.784, 319.335 228, 318.507 228 C 317.566 228, 317 228.940, 317 230.500 C 317 232.944, 317.167 233, 324.500 233 C 331.333 233, 332 232.822, 332 231 C 332 229.900, 331.352 229, 330.559 229 C 328.655 229, 327.846 227.565, 328.617 225.555 C 329.144 224.183, 330.733 223.975, 338.859 224.215 C 347.238 224.463, 348.522 224.735, 348.825 226.321 C 349.051 227.500, 348.438 228.334, 347.087 228.688 C 345.903 228.997, 345 230.048, 345 231.117 C 345 232.813, 345.842 233, 353.500 233 C 361.460 233, 362 232.867, 362 230.906 C 362 229.744, 361.212 228.607, 360.229 228.350 C 357.986 227.763, 348.710 213.197, 349.413 211.366 C 349.701 210.615, 350.851 210, 351.969 210 C 353.333 210, 354 209.344, 354 208 C 354 206.092, 353.333 206, 339.500 206 C 325.944 206, 325 206.123, 325 207.892 M 45 213.500 L 45 217 55.465 217 C 64.781 217, 66.043 216.788, 66.963 215.069 C 67.743 213.612, 67.611 212.754, 66.427 211.569 C 65.211 210.354, 62.616 210, 54.929 210 L 45 210 45 213.500 M 97.247 211.250 C 96.074 212.720, 93 218.655, 93 219.450 C 93 219.753, 95.700 220, 99 220 C 102.300 220, 105 219.702, 105 219.338 C 105 218.043, 99.901 210, 99.080 210 C 98.621 210, 97.796 210.563, 97.247 211.250 M 197.250 213.956 C 196.012 216.123, 195 218.370, 195 218.948 C 195 219.567, 197.469 220, 201 220 C 204.300 220, 207 219.832, 207 219.626 C 207 218.200, 201.599 210.002, 200.665 210.008 C 200.024 210.012, 198.488 211.789, 197.250 213.956 M 238.384 211.442 C 238.080 212.234, 237.986 213.697, 238.177 214.692 C 238.475 216.249, 239.769 216.541, 247.511 216.794 C 258.167 217.143, 261 216.594, 261 214.181 C 261 210.719, 258.896 210, 248.769 210 C 241.129 210, 238.814 210.321, 238.384 211.442 M 335.513 213.980 C 334.131 216.169, 333 218.419, 333 218.980 C 333 219.560, 335.589 220, 339 220 C 342.300 220, 345 219.702, 345 219.338 C 345 217.945, 339.870 210, 338.970 210 C 338.450 210, 336.894 211.791, 335.513 213.980 M 45.190 224.750 L 45.500 228.500 55.332 228.500 C 63.817 228.500, 65.354 228.241, 66.544 226.612 C 67.528 225.264, 67.638 224.191, 66.926 222.862 C 66.051 221.227, 64.646 221, 55.404 221 L 44.879 221 45.190 224.750 M 91.167 238.940 C 92.042 241.411, 103.238 253.849, 109.349 259.142 C 134.925 281.290, 163.815 292.164, 197 292.132 C 219.927 292.110, 237.638 287.897, 257.332 277.780 C 273.632 269.408, 290.011 256.029, 300.834 242.246 L 304.168 238 197.501 238 C 131.332 238, 90.960 238.357, 91.167 238.940 M 139.401 248.626 C 145.951 253.077, 161.392 259.926, 169.646 262.042 C 188.584 266.896, 208.526 266.681, 226.657 261.427 C 235.370 258.902, 248.042 253.082, 254.744 248.528 L 258.464 246 197 246 L 135.536 246 139.401 248.626" stroke="none" fill="#6c1225" fill-rule="evenodd"/></svg>