<svg xmlns="http://www.w3.org/2000/svg" width="225" height="225" viewBox="0 0 225 225" version="1.1"><path d="M 77 57.427 C 69.025 59.792, 59.912 62.476, 56.750 63.391 L 51 65.056 51 104.438 L 51 143.820 71.750 160.027 L 92.500 176.234 92.761 136.117 L 93.023 96 113 96 L 132.977 96 133.239 135.994 L 133.500 175.988 153.711 159.744 L 173.922 143.500 173.950 104 L 173.978 64.500 154.739 59.118 C 144.158 56.158, 134.938 53.533, 134.250 53.285 C 133.279 52.934, 133 56.876, 133 70.917 L 133 89 113 89 L 93 89 93 71 C 93 61.100, 92.662 53.029, 92.250 53.064 C 91.838 53.099, 84.975 55.062, 77 57.427 M 151.480 68.766 C 150.875 69.837, 150.609 84.354, 150.786 106.750 C 151.026 137.104, 151.301 143, 152.479 143 C 153.657 143, 153.936 137.024, 154.193 106.250 C 154.494 70.235, 154.058 64.208, 151.480 68.766 M 144 70.845 C 144 72.585, 146.867 76, 148.329 76 C 149.734 76, 148.920 72.237, 147.171 70.655 C 144.808 68.516, 144 68.565, 144 70.845 M 157.655 70.829 C 155.601 73.098, 155.501 76, 157.477 76 C 159.315 76, 162.402 71.460, 161.527 70.044 C 160.596 68.537, 159.535 68.752, 157.655 70.829 M 139.189 75.742 C 139.373 76.701, 140.753 78.074, 142.254 78.793 C 147.383 81.251, 148.342 86.626, 143.431 85.393 C 140.724 84.714, 135.544 87.453, 136.527 89.044 C 137.404 90.462, 141.225 90.144, 143.441 88.468 C 144.509 87.661, 145.746 87, 146.191 87 C 146.636 87, 147 98.495, 147 112.545 L 147 138.091 144.545 140.545 C 143.003 142.088, 142.598 143, 143.457 143 C 144.208 143, 145.987 141.615, 147.411 139.923 L 150 136.847 150 110.795 L 150 84.743 146.927 79.372 C 144.499 75.128, 143.328 74, 141.353 74 C 139.515 74, 138.942 74.461, 139.189 75.742 M 158.978 78.696 L 156 83.392 156 110.741 L 156 138.091 158.455 140.545 C 161.978 144.069, 163.664 143.578, 160.589 139.923 L 158 136.847 158 112.482 C 158 96.355, 158.359 87.896, 159.063 87.461 C 159.648 87.100, 160.921 87.523, 161.892 88.402 C 163.732 90.068, 169 90.626, 169 89.155 C 169 86.964, 165.048 84.831, 162.162 85.464 C 160.528 85.823, 158.975 85.753, 158.713 85.309 C 157.890 83.916, 159.870 79.985, 161.726 79.326 C 163.969 78.530, 167 75.954, 167 74.845 C 167 74.380, 165.865 74, 164.478 74 C 162.563 74, 161.239 75.130, 158.978 78.696 M 73.635 78.073 C 68.831 81.852, 71.295 89, 77.402 89 C 83.813 89, 86.353 81.996, 81.365 78.073 C 79.916 76.933, 78.177 76, 77.500 76 C 76.823 76, 75.084 76.933, 73.635 78.073 M 136 81.021 C 136 82.532, 140.613 84.363, 142.549 83.620 C 143.910 83.097, 143.993 82.696, 142.990 81.488 C 141.602 79.816, 136 79.442, 136 81.021 M 162.200 81.200 C 160.422 82.978, 160.738 84, 163.066 84 C 165.611 84, 169 82.267, 169 80.965 C 169 79.585, 163.630 79.770, 162.200 81.200 M 59.200 85.200 C 57.246 87.154, 57.717 92.778, 59.934 93.965 C 64.206 96.251, 69 93.798, 69 89.326 C 69 85.115, 62.164 82.236, 59.200 85.200 M 141.278 92.250 C 139.512 94.531, 139.009 97, 140.309 97 C 142.287 97, 146 94.027, 146 92.443 C 146 90.672, 142.606 90.533, 141.278 92.250 M 160 92.407 C 160 94.123, 164.365 97.384, 165.938 96.844 C 166.572 96.627, 166.483 95.580, 165.695 94 C 164.272 91.142, 160 89.948, 160 92.407 M 68.500 95.502 C 66.300 96.870, 63.762 97.992, 62.861 97.995 C 61.959 97.998, 60.303 98.787, 59.180 99.750 C 57.344 101.325, 57.015 103.473, 55.897 121.189 C 54.883 137.252, 54.893 141.166, 55.950 142.439 C 56.932 143.623, 59.241 144, 65.517 144 L 73.789 144 72.919 140.250 C 71.505 134.162, 71.811 122.715, 73.450 120.375 C 74.248 119.236, 77.544 117.340, 80.776 116.162 C 84.565 114.780, 87.107 113.169, 87.933 111.625 C 89.564 108.578, 88.637 102.775, 85.674 97.481 C 83.538 93.663, 83.223 93.490, 77.973 93.257 C 73.606 93.063, 71.692 93.516, 68.500 95.502 M 77.250 104.031 C 76.013 104.529, 75 105.363, 75 105.886 C 75 106.409, 74.740 107.513, 74.423 108.341 C 73.757 110.076, 77.278 114, 79.500 114 C 80.325 114, 81.900 113.100, 83 112 C 84.100 110.900, 85 109.325, 85 108.500 C 85 106.922, 81.534 102.955, 80.250 103.063 C 79.838 103.098, 78.487 103.534, 77.250 104.031 M 77.163 105.857 C 76.427 106.335, 75.977 107.800, 76.163 109.113 C 76.433 111.024, 77.099 111.500, 79.500 111.500 C 82.167 111.500, 82.500 111.167, 82.500 108.500 C 82.500 106.252, 81.999 105.436, 80.500 105.244 C 79.400 105.104, 77.898 105.380, 77.163 105.857 M 31.158 119 C 31.158 120.375, 31.385 120.938, 31.662 120.250 C 31.940 119.563, 31.940 118.438, 31.662 117.750 C 31.385 117.063, 31.158 117.625, 31.158 119 M 84.548 117.923 C 84.234 118.431, 82.633 119.141, 80.990 119.502 C 76.420 120.506, 75 123.392, 75 131.675 C 75 135.652, 75.522 140.052, 76.161 141.453 C 77.185 143.701, 77.923 144, 82.461 144 C 85.287 144, 88.140 143.460, 88.800 142.800 C 90.060 141.540, 90.548 121.592, 89.393 118.582 C 88.736 116.868, 85.473 116.425, 84.548 117.923 M 193.158 120 C 193.158 121.375, 193.385 121.938, 193.662 121.250 C 193.940 120.563, 193.940 119.438, 193.662 118.750 C 193.385 118.063, 193.158 118.625, 193.158 120 M 17.079 125.583 C 17.127 126.748, 17.364 126.985, 17.683 126.188 C 17.972 125.466, 17.936 124.603, 17.604 124.271 C 17.272 123.939, 17.036 124.529, 17.079 125.583 M 207.079 125.583 C 207.127 126.748, 207.364 126.985, 207.683 126.188 C 207.972 125.466, 207.936 124.603, 207.604 124.271 C 207.272 123.939, 207.036 124.529, 207.079 125.583 M 54.500 170 C 57.209 172.750, 59.650 175, 59.925 175 C 60.200 175, 58.209 172.750, 55.500 170 C 52.791 167.250, 50.350 165, 50.075 165 C 49.800 165, 51.791 167.250, 54.500 170 M 172.405 167.250 L 170.500 169.500 172.750 167.595 C 174.864 165.805, 175.455 165, 174.655 165 C 174.465 165, 173.453 166.012, 172.405 167.250 M 166.405 173.250 L 164.500 175.500 166.750 173.595 C 168.864 171.805, 169.455 171, 168.655 171 C 168.465 171, 167.453 172.012, 166.405 173.250 M 44 180.500 C 45.866 182.425, 47.617 184, 47.892 184 C 48.167 184, 46.866 182.425, 45 180.500 C 43.134 178.575, 41.383 177, 41.108 177 C 40.833 177, 42.134 178.575, 44 180.500 M 179.924 180.750 L 177.500 183.500 180.250 181.076 C 181.762 179.742, 183 178.505, 183 178.326 C 183 177.541, 182.190 178.180, 179.924 180.750 M 101 193.969 C 101 194.501, 101.675 194.678, 102.500 194.362 C 103.325 194.045, 104 193.609, 104 193.393 C 104 193.177, 103.325 193, 102.500 193 C 101.675 193, 101 193.436, 101 193.969 M 121.813 193.683 C 122.534 193.972, 123.397 193.936, 123.729 193.604 C 124.061 193.272, 123.471 193.036, 122.417 193.079 C 121.252 193.127, 121.015 193.364, 121.813 193.683 M 115.269 197.693 C 116.242 197.947, 117.592 197.930, 118.269 197.656 C 118.946 197.382, 118.150 197.175, 116.500 197.195 C 114.850 197.215, 114.296 197.439, 115.269 197.693 M 101.158 200 C 101.158 201.375, 101.385 201.938, 101.662 201.250 C 101.940 200.563, 101.940 199.438, 101.662 198.750 C 101.385 198.063, 101.158 198.625, 101.158 200 M 107 198.941 C 107 199.459, 107.445 200.157, 107.989 200.493 C 108.555 200.843, 108.723 200.442, 108.382 199.552 C 107.717 197.820, 107 197.503, 107 198.941 M 130.079 203.583 C 130.127 204.748, 130.364 204.985, 130.683 204.188 C 130.972 203.466, 130.936 202.603, 130.604 202.271 C 130.272 201.939, 130.036 202.529, 130.079 203.583 M 98.733 205.124 C 99.412 205.808, 100.219 206.115, 100.526 205.807 C 100.834 205.499, 100.279 204.940, 99.293 204.564 C 97.868 204.022, 97.753 204.136, 98.733 205.124 M 107.813 206.683 C 108.534 206.972, 109.397 206.936, 109.729 206.604 C 110.061 206.272, 109.471 206.036, 108.417 206.079 C 107.252 206.127, 107.015 206.364, 107.813 206.683 M 126.813 207.683 C 127.534 207.972, 128.397 207.936, 128.729 207.604 C 129.061 207.272, 128.471 207.036, 127.417 207.079 C 126.252 207.127, 126.015 207.364, 126.813 207.683 M 105.269 208.693 C 106.242 208.947, 107.592 208.930, 108.269 208.656 C 108.946 208.382, 108.150 208.175, 106.500 208.195 C 104.850 208.215, 104.296 208.439, 105.269 208.693 M 116.250 208.689 C 117.213 208.941, 118.787 208.941, 119.750 208.689 C 120.713 208.438, 119.925 208.232, 118 208.232 C 116.075 208.232, 115.287 208.438, 116.250 208.689" stroke="none" fill="#00acd5" fill-rule="evenodd"/><path d="M 100.654 17.751 C 100.399 18.163, 100.434 21.538, 100.732 25.251 C 101.191 30.974, 101.557 32, 103.137 32 C 104.431 32, 105 31.275, 105 29.625 C 105 27.190, 107.820 26, 113.594 26 C 115.316 26, 115.777 25.582, 115.333 24.425 C 114.845 23.155, 113.787 22.979, 109.864 23.519 C 105.381 24.135, 105 24.024, 105 22.094 C 105 20.223, 105.585 20, 110.500 20 C 114.722 20, 116 19.652, 116 18.500 C 116 17.301, 114.507 17, 108.559 17 C 104.466 17, 100.909 17.338, 100.654 17.751 M 79.748 22.163 C 72.763 24.598, 71.879 26.677, 74.913 33.536 C 77.284 38.896, 77.725 38.946, 88.183 35.033 C 94.593 32.634, 95.529 31.171, 93.897 26.097 C 91.686 19.225, 89.733 18.682, 79.748 22.163 M 133.513 21.250 C 131.901 26.005, 130.333 34, 131.013 34 C 131.466 34, 132.472 34.244, 133.250 34.542 C 134.281 34.938, 134.984 33.655, 135.853 29.792 C 136.508 26.882, 137.312 23.488, 137.639 22.250 C 138.120 20.430, 137.822 20, 136.085 20 C 134.904 20, 133.746 20.563, 133.513 21.250 M 85 23.730 C 77.179 26.491, 77.066 26.604, 78.237 30.420 C 79.473 34.449, 80.847 34.798, 86.378 32.487 C 88.716 31.510, 90 30.308, 90 29.097 C 90 26.503, 86.819 23.088, 85 23.730 M 141.267 29.413 C 138.464 35.098, 138.294 35.899, 139.776 36.467 C 140.772 36.850, 141.926 36.454, 142.633 35.488 C 143.714 34.008, 144.180 34.051, 147.961 35.980 C 151.261 37.663, 151.978 38.493, 151.483 40.052 C 151.067 41.365, 151.413 42.221, 152.532 42.651 C 154.542 43.422, 156.175 41.209, 155.410 38.750 C 155.110 37.788, 155.335 37, 155.910 37 C 157.543 37, 160.112 32.455, 159.451 30.733 C 158.931 29.378, 147.152 23, 145.170 23 C 144.762 23, 143.006 25.886, 141.267 29.413 M 146.016 28.970 C 145.098 30.685, 145.476 31.202, 148.941 32.970 C 153.805 35.451, 153.689 35.450, 154.984 33.030 C 155.902 31.315, 155.524 30.798, 152.059 29.030 C 147.195 26.549, 147.311 26.550, 146.016 28.970 M 53.750 35.716 C 52.672 36.913, 52 39.263, 52 41.841 L 52 46.024 48.005 45.385 C 45.322 44.956, 43.485 45.183, 42.408 46.076 C 40.951 47.286, 40.973 47.471, 42.653 48.133 C 43.669 48.532, 46.192 48.891, 48.260 48.930 C 50.718 48.976, 52.613 49.692, 53.732 51 C 54.674 52.100, 55.993 53, 56.663 53 C 58.744 53, 59.270 50.955, 57.649 49.164 C 56.651 48.062, 55.995 45.026, 55.801 40.615 C 55.511 34.020, 55.437 33.845, 53.750 35.716 M 164.791 41.750 C 163.312 48.799, 163.307 49.658, 164.738 51.250 C 166.753 53.493, 166.808 53.489, 175.655 50.348 C 182.402 47.953, 182.975 47.546, 181.575 46.146 C 179.962 44.533, 180.285 44.470, 168.320 48.739 C 167.456 49.048, 167.528 47.499, 168.588 42.954 C 169.678 38.279, 169.754 36.409, 168.895 35.374 C 168.268 34.618, 167.454 34, 167.086 34 C 166.718 34, 165.685 37.487, 164.791 41.750 M 180.516 56.003 C 174.994 60.323, 174.633 60.868, 175.931 62.921 C 176.700 64.137, 177.166 64.114, 179.165 62.762 C 185.149 58.713, 188.130 55.475, 187.463 53.750 C 186.557 51.407, 186.273 51.499, 180.516 56.003 M 31.295 60.260 C 28.445 65.162, 27.420 67.814, 28.113 68.495 C 29.093 69.459, 31.383 67.352, 32.280 64.659 C 32.477 64.068, 34.906 65.002, 37.794 66.778 C 42.741 69.822, 42.997 69.874, 43.987 68.025 C 44.882 66.351, 44.388 65.734, 40.260 63.370 C 37.642 61.871, 35.352 60.538, 35.170 60.409 C 34.989 60.279, 35.590 59.029, 36.506 57.631 C 38.034 55.299, 37.876 52.978, 36.191 53.015 C 35.811 53.024, 33.608 56.284, 31.295 60.260 M 93 71 L 93 89 112.500 89 L 132 89 132 71 L 132 53 112.500 53 L 93 53 93 71 M 185.750 63.693 C 179.692 66.391, 179.479 66.627, 180.963 68.975 C 181.765 70.243, 182.535 70.139, 186.475 68.225 C 188.993 67.001, 191.273 66, 191.541 66 C 191.809 66, 190.649 68.734, 188.962 72.076 C 186.219 77.509, 186.014 78.513, 187.025 81.576 C 187.647 83.459, 188.337 85, 188.559 85 C 189.509 85, 201.999 78.521, 201.985 78.035 C 201.976 77.741, 201.588 76.899, 201.122 76.163 C 200.444 75.094, 199.250 75.346, 195.138 77.430 C 192.312 78.862, 190 79.788, 190 79.488 C 190 79.188, 191.383 76.203, 193.073 72.855 C 195.793 67.468, 196.009 66.436, 194.952 63.884 C 193.520 60.427, 193.102 60.418, 185.750 63.693 M 24.471 73.092 C 23.683 75.573, 23.150 75.085, 30.706 78.802 C 36.708 81.754, 36.932 81.788, 37.547 79.852 C 38.315 77.431, 38.832 77.904, 31.312 74.135 C 25.264 71.104, 25.109 71.081, 24.471 73.092 M 20.121 84.774 C 19.599 85.749, 18.584 89.395, 17.865 92.875 C 16.660 98.706, 16.700 99.308, 18.371 100.529 C 21.358 102.713, 27.988 103.440, 29.661 101.768 C 31.568 99.861, 34.262 89.400, 33.480 86.937 C 33.136 85.853, 31.965 85, 30.821 85 C 29.020 85, 28.857 85.423, 29.446 88.562 C 29.815 90.533, 29.598 93.687, 28.960 95.620 C 27.888 98.870, 27.585 99.070, 24.653 98.453 C 22.919 98.088, 21.130 97.444, 20.677 97.022 C 19.557 95.977, 21.658 88.528, 23.507 86.994 C 24.328 86.313, 25 85.135, 25 84.378 C 25 82.380, 21.239 82.686, 20.121 84.774 M 195.503 86.404 C 192.629 87.096, 190.404 88.220, 190.264 89.053 C 190.130 89.849, 190.804 93.522, 191.761 97.216 C 193.081 102.315, 193.822 103.733, 194.835 103.104 C 195.888 102.452, 195.942 101.455, 195.091 98.388 C 193.632 93.135, 193.725 91, 195.412 91 C 196.266 91, 197.076 92.491, 197.461 94.770 C 197.812 96.844, 198.502 99.194, 198.995 99.991 C 200.613 102.610, 201.212 100.233, 200.167 95.336 C 199.412 91.794, 199.448 90.341, 200.307 89.810 C 201.746 88.921, 202.535 90.340, 203.463 95.492 C 204.350 100.422, 204.719 101.045, 206.376 100.409 C 207.439 100.001, 207.367 98.538, 206 92.703 C 204.098 84.584, 203.805 84.408, 195.503 86.404 M 93 136.500 L 93 177 112.500 177 L 132 177 132 136.500 L 132 96 112.500 96 L 93 96 93 136.500" stroke="none" fill="#231f20" fill-rule="evenodd"/><path d="M 100.195 24.500 C 100.215 26.150, 100.439 26.704, 100.693 25.731 C 100.947 24.758, 100.930 23.408, 100.656 22.731 C 100.382 22.054, 100.175 22.850, 100.195 24.500 M 106.269 23.693 C 107.242 23.947, 108.592 23.930, 109.269 23.656 C 109.946 23.382, 109.150 23.175, 107.500 23.195 C 105.850 23.215, 105.296 23.439, 106.269 23.693 M 110.269 26.693 C 111.242 26.947, 112.592 26.930, 113.269 26.656 C 113.946 26.382, 113.150 26.175, 111.500 26.195 C 109.850 26.215, 109.296 26.439, 110.269 26.693 M 166.083 33.283 C 166.313 33.439, 167.400 34.226, 168.500 35.033 C 170.350 36.390, 170.397 36.369, 169.128 34.750 C 168.373 33.788, 167.285 33, 166.711 33 C 166.137 33, 165.854 33.127, 166.083 33.283 M 132.415 71 C 132.415 81.175, 132.564 85.337, 132.745 80.250 C 132.927 75.162, 132.927 66.837, 132.745 61.750 C 132.564 56.662, 132.415 60.825, 132.415 71 M 187.429 55 C 187.429 56.295, 187.767 56.633, 188.414 55.986 C 189.062 55.338, 189.062 54.662, 188.414 54.014 C 187.767 53.367, 187.429 53.705, 187.429 55 M 174 60.941 C 174 61.459, 174.445 62.157, 174.989 62.493 C 175.555 62.843, 175.723 62.442, 175.382 61.552 C 174.717 59.820, 174 59.503, 174 60.941 M 132.457 136.500 C 132.456 159.050, 132.588 168.418, 132.749 157.317 C 132.909 146.216, 132.910 127.766, 132.749 116.317 C 132.589 104.868, 132.457 113.950, 132.457 136.500 M 17.340 121.265 C 20.794 166.192, 57.200 203.265, 102.408 207.890 C 155.749 213.348, 203.606 173.823, 207.684 120.944 L 208.296 113 201.148 113 L 194 113 194 116.412 C 194 118.289, 193.354 123.126, 192.565 127.162 C 187.427 153.441, 171.867 174.062, 148.500 185.560 C 136.302 191.562, 129.746 193.150, 114.750 193.737 L 102 194.236 102 196.993 C 102 201.658, 100.792 206.097, 99.628 205.709 C 99.005 205.502, 98.659 203.736, 98.837 201.670 C 99.096 198.669, 98.820 197.999, 97.327 197.995 C 95.872 197.991, 96.098 197.512, 98.441 195.637 L 101.381 193.284 96.652 192.575 C 85.477 190.899, 71.076 184.041, 60.615 175.412 C 44.755 162.330, 34.404 143.166, 31.722 121.922 L 30.596 113 23.650 113 L 16.705 113 17.340 121.265 M 125.250 195.496 C 123.634 197.332, 123.671 198, 125.389 198 C 126.184 198, 127.058 199.495, 127.434 201.500 C 127.827 203.595, 128.675 205, 129.545 205 C 131.284 205, 131.263 205.326, 129.917 199.049 C 128.819 193.927, 127.509 192.930, 125.250 195.496 M 105.667 195.667 C 104.595 196.738, 104.900 200.820, 106.107 201.566 C 106.886 202.048, 106.831 202.486, 105.921 203.049 C 104.866 203.701, 104.869 204.137, 105.937 205.424 C 109.789 210.065, 115.037 202.674, 111.965 196.934 C 110.969 195.074, 107.048 194.285, 105.667 195.667 M 114 196.500 C 114 197.424, 114.938 198, 116.441 198 C 118.784 198, 118.824 198.109, 117.447 200.750 C 115.602 204.287, 115.619 206, 117.500 206 C 118.325 206, 119.002 205.213, 119.004 204.250 C 119.006 203.287, 119.906 201.027, 121.004 199.226 C 122.102 197.425, 123 195.738, 123 195.476 C 123 195.214, 120.975 195, 118.500 195 C 115.167 195, 114 195.389, 114 196.500 M 108 198.441 C 108 199.298, 108.450 200, 109 200 C 109.550 200, 110 199.577, 110 199.059 C 110 198.541, 109.550 197.840, 109 197.500 C 108.450 197.160, 108 197.584, 108 198.441" stroke="none" fill="#127172" fill-rule="evenodd"/></svg>